<?xml version="1.0" encoding="utf-8"?>
<!-- Generator: Adobe Illustrator 16.0.0, SVG Export Plug-In . SVG Version: 6.00 Build 0)  -->
<!DOCTYPE svg PUBLIC "-//W3C//DTD SVG 1.1//EN" "http://www.w3.org/Graphics/SVG/1.1/DTD/svg11.dtd">
<svg version="1.1" id="Layer_1" xmlns="http://www.w3.org/2000/svg" xmlns:xlink="http://www.w3.org/1999/xlink" x="0px" y="0px"
	 width="74.125px" height="76.921px" viewBox="0 0 74.125 76.921" enable-background="new 0 0 74.125 76.921" xml:space="preserve">
<g>
	<g>
		<path fill="#FFFFFF" d="M6.993,8.858C3.131,8.858,0,11.989,0,15.852v54.078c0,3.861,3.131,6.992,6.993,6.992h60.138
			c3.861,0,6.994-3.131,6.994-6.992V15.852c0-3.862-3.133-6.993-6.994-6.993h-2.447v4.428c0,2.956-2.404,5.362-5.361,5.362
			s-5.361-2.406-5.361-5.362V8.858H20.163v4.428c0,2.956-2.405,5.362-5.36,5.362c-2.958,0-5.362-2.406-5.362-5.362V8.858H6.993z
			 M11.423,28.438H62.7c1.547,0,2.799,1.133,2.799,2.532v35.031c0,1.396-1.252,2.527-2.799,2.527H11.423
			c-1.546,0-2.798-1.131-2.798-2.527V30.971C8.625,29.571,9.877,28.438,11.423,28.438z"/>
		<path fill="#FFFFFF" d="M12.239,2.563v6.295v4.428c0,1.415,1.148,2.565,2.563,2.565c1.413,0,2.563-1.15,2.563-2.565V8.858V2.563
			c0-1.415-1.15-2.563-2.563-2.563C13.387,0,12.239,1.148,12.239,2.563z"/>
		<path fill="#FFFFFF" d="M56.758,2.563v6.295v4.428c0,1.415,1.15,2.565,2.564,2.565s2.564-1.15,2.564-2.565V8.858V2.563
			c0-1.415-1.15-2.563-2.564-2.563S56.758,1.148,56.758,2.563z"/>
	</g>
	<rect x="13.528" y="32.808" fill="#FFFFFF" width="13.566" height="13.884"/>
	<rect x="30.608" y="32.808" fill="#FFFFFF" width="13.564" height="13.884"/>
	<rect x="13.528" y="49.872" fill="#FFFFFF" width="13.566" height="13.883"/>
	<rect x="30.608" y="49.872" fill="#FFFFFF" width="13.564" height="13.883"/>
	<rect x="48.321" y="32.808" fill="#FFFFFF" width="13.566" height="13.884"/>
	<rect x="48.321" y="49.872" fill="#FFFFFF" width="13.566" height="13.883"/>
</g>
</svg>
