<?xml version="1.0" encoding="utf-8"?>
<!-- Generator: Adobe Illustrator 16.0.0, SVG Export Plug-In . SVG Version: 6.00 Build 0)  -->
<!DOCTYPE svg PUBLIC "-//W3C//DTD SVG 1.1//EN" "http://www.w3.org/Graphics/SVG/1.1/DTD/svg11.dtd">
<svg version="1.1" id="Layer_1" xmlns="http://www.w3.org/2000/svg" xmlns:xlink="http://www.w3.org/1999/xlink" x="0px" y="0px"
	 width="78.605px" height="52.535px" viewBox="0 0 78.605 52.535" enable-background="new 0 0 78.605 52.535" xml:space="preserve">
<path fill="#FFFFFF" d="M72.812,0.22L5.966,0C2.754-0.011,0.143,2.582,0.133,5.792L0,46.483c-0.012,3.209,2.58,5.822,5.792,5.83
	l66.848,0.221c3.209,0.012,5.82-2.584,5.832-5.791l0.133-40.692C78.615,2.841,76.025,0.229,72.812,0.22z M10.658,31.924
	l21.781-0.023l0.002,1.643l-21.782,0.021L10.658,31.924z M10.667,39.696l-0.003-1.639l43.562-0.047l0.002,1.639L10.667,39.696z
	 M53.916,28.231L53.894,7.874l16.254-0.019l0.021,20.358L53.916,28.231z"/>
</svg>
