<?xml version="1.0" encoding="utf-8"?>
<!-- Generator: Adobe Illustrator 16.0.0, SVG Export Plug-In . SVG Version: 6.00 Build 0)  -->
<!DOCTYPE svg PUBLIC "-//W3C//DTD SVG 1.1//EN" "http://www.w3.org/Graphics/SVG/1.1/DTD/svg11.dtd">
<svg version="1.1" id="Layer_1" xmlns="http://www.w3.org/2000/svg" xmlns:xlink="http://www.w3.org/1999/xlink" x="0px" y="0px"
	 width="200px" height="200px" viewBox="0 0 200 200" enable-background="new 0 0 200 200" xml:space="preserve">
<path d="M200,190c0,5.522-4.477,10-10,10H10c-5.523,0-10-4.478-10-10V10C0,4.477,4.477,0,10,0h180c5.523,0,10,4.477,10,10V190z"/>
<g>
	<g>
		<g>
			<g>
				<path fill="#FFFFFF" d="M116.54,157.469H83.448c-1.376,0-2.496-1.111-2.496-2.479c0-0.471,0.134-0.928,0.385-1.322
					c2.703-5.332,4.545-10.16,5.566-14.652c1.023-4.6,1.159-8.838,0.407-12.922c-8.132-2.49-15.311-7.295-20.803-13.93
					c-5.427-6.555-8.775-14.42-9.714-22.793c-4.772-1.657-9.064-4.757-12.16-8.795c-3.484-4.561-5.326-9.995-5.326-15.719v-28.59
					c0-1.364,1.113-2.477,2.482-2.477h14.746V22.928c0-1.369,1.114-2.482,2.483-2.482h81.968c1.377,0,2.496,1.113,2.496,2.482
					v10.863h14.732c1.365,0,2.477,1.112,2.477,2.477v28.59c0,5.722-1.846,11.158-5.34,15.719c-3.086,4.038-7.373,7.138-12.146,8.795
					c-0.938,8.363-4.285,16.229-9.71,22.793c-5.498,6.625-12.669,11.43-20.784,13.928c-0.782,4.229-0.658,8.559,0.377,13.205
					c0.98,4.396,2.775,9.02,5.648,14.555c0.305,0.582,0.361,1.254,0.159,1.891c-0.202,0.629-0.632,1.143-1.216,1.447
					C117.296,157.377,116.905,157.469,116.54,157.469z M41.851,36.407l0.073,28.45c0,5.144,1.653,10.03,4.786,14.13
					c2.946,3.842,7.097,6.741,11.685,8.159c0.505,0.157,0.866,0.603,0.915,1.129c0.751,8.167,3.938,15.85,9.214,22.225
					c5.325,6.434,12.337,11.035,20.275,13.309c0.466,0.133,0.819,0.512,0.919,0.984c0.994,4.691,0.908,9.531-0.263,14.799
					c-1.072,4.707-2.985,9.736-5.852,15.373l32.708-0.109c-2.918-5.654-4.755-10.42-5.776-14.988
					c-1.178-5.301-1.255-10.23-0.231-15.072c0.101-0.473,0.452-0.852,0.917-0.986c7.924-2.283,14.93-6.885,20.262-13.311
					c5.271-6.383,8.456-14.065,9.208-22.223c0.049-0.526,0.41-0.972,0.915-1.129c4.588-1.418,8.734-4.315,11.671-8.159
					c3.141-4.102,4.801-8.988,4.801-14.13V36.333l-15.902,0.074c-0.723,0-1.308-0.585-1.308-1.308V22.973l-81.803,0.089L59.152,35.1
					c0,0.723-0.585,1.308-1.308,1.308H41.851z M142.175,79.71c-0.235,0-0.469-0.064-0.677-0.19c-0.392-0.235-0.631-0.66-0.631-1.117
					V44.366c0-0.723,0.585-1.309,1.308-1.309h8.627c0.723,0,1.308,0.586,1.308,1.309v19.81c0,3.521-1.047,6.898-3.024,9.768
					c-1.606,2.359-3.789,4.304-6.305,5.617C142.59,79.659,142.384,79.71,142.175,79.71z M143.483,45.674v30.373
					c1.334-0.986,2.502-2.199,3.445-3.582c1.679-2.436,2.564-5.302,2.564-8.289V45.674H143.483z M57.845,79.71
					c-0.206,0-0.412-0.049-0.604-0.147c-2.531-1.313-4.72-3.26-6.326-5.627c-1.976-2.867-3.024-6.244-3.024-9.76v-19.81
					c0-0.723,0.585-1.309,1.308-1.309h8.646c0.723,0,1.308,0.586,1.308,1.309v34.036c0,0.455-0.239,0.88-0.628,1.117
					C58.316,79.646,58.08,79.71,57.845,79.71z M50.507,45.674v18.502c0,2.983,0.888,5.848,2.567,8.283
					c0.944,1.393,2.119,2.608,3.462,3.596V45.674H50.507z"/>
			</g>
		</g>
		<g>
			<path fill="#FFFFFF" d="M132.923,173.283H67.078c-0.723,0-1.309-0.584-1.309-1.307V156.16c0-0.723,0.586-1.307,1.309-1.307
				h65.845c0.723,0,1.308,0.584,1.308,1.307v15.816C134.23,172.699,133.646,173.283,132.923,173.283z M68.386,170.668h63.229
				v-13.199H68.386V170.668z"/>
		</g>
		<g>
			<path fill="#FFFFFF" d="M125.543,179.555H74.457c-0.723,0-1.308-0.584-1.308-1.307v-6.271c0-0.725,0.585-1.309,1.308-1.309
				h51.086c0.723,0,1.309,0.584,1.309,1.309v6.271C126.852,178.971,126.266,179.555,125.543,179.555z M75.765,176.939h48.471v-3.656
				H75.765V176.939z"/>
		</g>
		<g>
			<path fill="#FFFFFF" d="M111.653,95.134c-0.578,0-1.122-0.2-1.577-0.577l-10.066-7.34l-10.219,7.438
				c-1.086,0.791-2.693,0.509-3.471-0.572c-0.464-0.646-0.581-1.449-0.326-2.205l3.908-12.003l-10.227-7.387
				c-0.874-0.639-1.233-1.758-0.899-2.787c0.34-1.039,1.261-1.713,2.349-1.713l12.634,0.033l3.885-12.017
				c0.324-1.037,1.245-1.714,2.343-1.714c1.076,0,2.027,0.683,2.366,1.702l3.89,12.028l12.617-0.033c1.08,0,2.027,0.693,2.358,1.723
				c0.336,1.039-0.02,2.123-0.905,2.76l-10.229,7.404l3.932,12.015c0.252,0.752,0.132,1.556-0.33,2.197
				C113.215,94.743,112.454,95.134,111.653,95.134z M100.01,84.29c0.271,0,0.54,0.085,0.771,0.252l10.718,7.819l-4.197-12.581
				c-0.177-0.54,0.016-1.133,0.478-1.465l10.653-7.711l-13.137,0.035h-0.004c-0.567,0-1.07-0.365-1.243-0.905L100,57.213
				l-4.048,12.521c-0.173,0.542-0.691,0.979-1.247,0.905l-13.169-0.035l10.671,7.709c0.459,0.334,0.651,0.925,0.477,1.465
				l-4.087,12.557l10.644-7.793C99.47,84.375,99.741,84.29,100.01,84.29z"/>
		</g>
	</g>
</g>
</svg>
