<?xml version="1.0" encoding="utf-8"?>
<!-- Generator: Adobe Illustrator 16.0.0, SVG Export Plug-In . SVG Version: 6.00 Build 0)  -->
<!DOCTYPE svg PUBLIC "-//W3C//DTD SVG 1.1//EN" "http://www.w3.org/Graphics/SVG/1.1/DTD/svg11.dtd">
<svg version="1.1" id="Layer_1" xmlns="http://www.w3.org/2000/svg" xmlns:xlink="http://www.w3.org/1999/xlink" x="0px" y="0px"
	 width="60.4px" height="80.458px" viewBox="0 0 60.4 80.458" enable-background="new 0 0 60.4 80.458" xml:space="preserve">
<g>
	<path fill="#FFFFFF" d="M29.205,61.906c-0.123,0.113-0.248,0.221-0.375,0.328c-0.131,0.113-0.26,0.221-0.393,0.328
		c-0.272,0.219-0.553,0.428-0.84,0.627L21.664,75.38l-1.182-7.021l1.754-2.82c-0.213,0.047-0.429,0.092-0.645,0.129
		c-0.555,0.098-1.117,0.166-1.69,0.199c-0.313,0.021-0.627,0.035-0.944,0.035c-1.219,0-2.402-0.148-3.539-0.422l1.783,2.881
		l-1.113,7.146L9.513,62.593c-0.303-0.242-0.596-0.496-0.88-0.76l-0.12,0.105C2.13,67.46,0.442,75.978,0,80.458h37.296
		C36.066,67.357,30.614,62.861,29.205,61.906z"/>
	<path fill="#FFFFFF" d="M18.956,36.593c-7.794,0-14.136,6.341-14.136,14.134c0,7.794,6.342,14.136,14.136,14.136
		c7.796,0,14.136-6.342,14.136-14.136C33.091,42.934,26.751,36.593,18.956,36.593z"/>
	<path fill="#FFFFFF" d="M59.441,71.146c0.08-0.055,0.127-0.148,0.121-0.248c-0.006-0.098-0.063-0.186-0.152-0.232
		c-0.027-0.016-2.393-1.24-3.021-2.898c0.829,0.82,1.812,1.158,3.104,1.396c0.1,0.02,0.201-0.018,0.265-0.098
		c0.064-0.076,0.081-0.188,0.043-0.281c-1.229-2.994-1.84-6.549-2.433-9.984c-0.36-2.104-0.713-4.148-1.192-5.977
		c-0.156-0.791-0.4-1.551-0.723-2.271c-0.345-0.898-0.749-1.709-1.238-2.399c-0.532-0.753-1.967-2.776-5.234-3.448
		c-1.052-0.345-2.173-0.533-3.339-0.533c-2.342,0-4.385,0.771-6.061,2.065c-1.591,1.004-2.777,2.522-3.66,4.72
		c-0.573,1.238-0.991,2.582-1.234,3.98c-0.066,0.389-0.107,0.764-0.129,1.131c-0.079,0.461-0.154,0.936-0.225,1.426
		c-0.326,2.307-0.091,5.318,0.356,8.176c1.87,2.988,3.735,7.674,4.39,14.789H60.4c-0.155-1.961-0.639-5.309-2.155-8.635
		C58.957,71.468,59.396,71.177,59.441,71.146z M52.888,69.445c-0.168,0.211-3.506,2.387-3.506,2.387l1.641,2.24l-5.197,4.082
		l0.009,0.02l-0.017-0.014l-0.016,0.014l0.01-0.02l-5.197-4.082l1.641-2.24c0,0-3.34-2.176-3.508-2.387
		c-0.298-0.373,1.493-2.088,1.493-2.088l5.577,10.785l5.578-10.785C51.396,67.357,53.185,69.072,52.888,69.445z"/>
	<path fill="#FFFFFF" d="M42.861,0H5.103c-2.06,0-3.729,1.671-3.729,3.73v20.333c0,2.061,1.669,3.729,3.729,3.729h15.178l-0.5,6.387
		l5.551-6.387h17.529c2.059,0,3.73-1.669,3.73-3.729V3.73C46.591,1.671,44.919,0,42.861,0z M25.712,18.021H6.862
		c-0.362,0-0.655-0.293-0.655-0.655c0-0.361,0.293-0.652,0.655-0.652h18.851c0.361,0,0.656,0.291,0.656,0.652
		C26.369,17.729,26.074,18.021,25.712,18.021z M40.638,13.502H6.862c-0.362,0-0.655-0.293-0.655-0.654
		c0-0.36,0.293-0.655,0.655-0.655h33.776c0.361,0,0.654,0.295,0.654,0.655C41.292,13.209,41,13.502,40.638,13.502z M40.638,8.983
		H6.862c-0.362,0-0.655-0.293-0.655-0.655c0-0.361,0.293-0.652,0.655-0.652h33.776c0.361,0,0.654,0.291,0.654,0.652
		C41.292,8.69,41,8.983,40.638,8.983z"/>
	<path fill="#FFFFFF" d="M56.865,18.018h-8.587v7.34c0,2.216-1.803,4.019-4.019,4.019h-11.33v4.893c0,1.289,1.044,2.336,2.334,2.336
		h11.518l3.475,3.996l-0.313-3.996h6.923c1.289,0,2.334-1.047,2.334-2.336V20.352C59.199,19.063,58.154,18.018,56.865,18.018z"/>
</g>
</svg>
