<?xml version="1.0" encoding="utf-8"?>
<!-- Generator: Adobe Illustrator 16.0.0, SVG Export Plug-In . SVG Version: 6.00 Build 0)  -->
<!DOCTYPE svg PUBLIC "-//W3C//DTD SVG 1.1//EN" "http://www.w3.org/Graphics/SVG/1.1/DTD/svg11.dtd">
<svg version="1.1" id="Layer_1" xmlns="http://www.w3.org/2000/svg" xmlns:xlink="http://www.w3.org/1999/xlink" x="0px" y="0px"
	 width="58.175px" height="66.475px" viewBox="0 0 58.175 66.475" enable-background="new 0 0 58.175 66.475" xml:space="preserve">
<path fill="#FFFFFF" d="M29.101,0.004c-0.015-0.001-0.031-0.002-0.046-0.003v0.007c-1.593,0.157-5.761,1.297-10.938,3.289
	C12.898,5.305,7.788,6.038,3.516,7.142c-4.239,1.095-3.46,6.18-3.46,6.18s1.591,20.566,2.238,23.953
	c3.093,16.189,26.448,29.201,26.448,29.201h0.008c0,0,23.806-12.623,27.027-29.113c0.676-3.461,2.34-24.514,2.34-24.514
	s0.818-5.222-3.615-6.249C50.064,5.569,44.8,4.942,39.468,3.037c-5.244-1.873-8.752-2.914-10.321-3.029V0
	C29.133,0.001,29.116,0.002,29.101,0.004z M37.521,7.563C41.603,9.03,45.554,9.8,49.05,10.482c0,0,3.156,0.766,3.703,0.884
	c0,0,0.135-0.02,0.096,0.862c-0.006,0.137-0.023,0.156-0.035,0.31c-0.633,8.027-1.807,21.625-2.26,23.957
	c-1.385,7.098-7.805,13.658-12.926,17.893c-3.393,2.807-6.695,4.998-8.884,6.35c-2.146-1.371-5.354-3.57-8.677-6.381
	c-5.086-4.301-11.404-10.883-12.75-17.918c-0.439-2.293-1.571-15.637-2.18-23.504c-0.012-0.151-0.009-0.172-0.033-0.304
	c-0.029-0.297-0.003-0.69,0.056-0.963c1.118-0.278,2.331-0.54,3.609-0.817c3.394-0.734,7.251-1.57,11.263-3.106
	c4.52-1.729,7.739-2.599,9.035-2.854C29.906,5.057,32.134,5.627,37.521,7.563z"/>
<path fill="#FFFFFF" d="M29.008,6.689c-0.011-0.001-0.023-0.002-0.034-0.002v0.005c-1.178,0.119-4.263,1.001-8.099,2.553
	c-3.87,1.564-7.665,2.13-10.84,2.987c-3.154,0.854-2.573,4.854-2.573,4.854s1.184,16.17,1.665,18.834
	c2.299,12.721,19.617,22.877,19.617,22.877h0.004c0,0,17.563-9.939,19.935-22.836c0.496-2.706,1.721-19.16,1.721-19.16
	s0.6-4.078-2.66-4.892c-3.266-0.813-7.145-1.315-11.076-2.819c-3.871-1.479-6.465-2.306-7.625-2.399V6.686
	C29.033,6.688,29.02,6.688,29.008,6.689z"/>
</svg>
